<svg width="60" height="60" viewBox="0 0 60 60" fill="none" xmlns="http://www.w3.org/2000/svg">
<g filter="url(#filter0_i_4013_1663)">
<circle cx="30" cy="30" r="30" fill="#5356FF"/>
<path d="M31.5 40.5002C31.5001 40.7558 31.5656 41.0071 31.6901 41.2303C31.8147 41.4535 31.9942 41.6411 32.2116 41.7755C32.429 41.9098 32.6772 41.9864 32.9325 41.9979C33.1878 42.0094 33.4419 41.9554 33.6705 41.8412L39.6705 38.8412C39.9196 38.7167 40.1292 38.5253 40.2757 38.2885C40.4222 38.0516 40.4999 37.7787 40.5 37.5002V28.8542C40.4999 28.5986 40.4344 28.3473 40.3099 28.1241C40.1853 27.9009 40.0058 27.7132 39.7884 27.5789C39.571 27.4445 39.3228 27.368 39.0675 27.3565C38.8122 27.345 38.5581 27.3989 38.3295 27.5132L32.3295 30.5132C32.0804 30.6377 31.8708 30.829 31.7243 31.0659C31.5778 31.3027 31.5001 31.5757 31.5 31.8542V40.5002ZM37.8165 24.4142C38.0653 24.2895 38.2745 24.098 38.4208 23.8612C38.567 23.6243 38.6444 23.3515 38.6444 23.0732C38.6444 22.7949 38.567 22.522 38.4208 22.2852C38.2745 22.0484 38.0653 21.8569 37.8165 21.7322L30.6705 18.1592C30.4623 18.0551 30.2327 18.001 30 18.001C29.7673 18.001 29.5377 18.0551 29.3295 18.1592L22.1835 21.7322C21.9347 21.8569 21.7255 22.0484 21.5792 22.2852C21.433 22.522 21.3556 22.7949 21.3556 23.0732C21.3556 23.3515 21.433 23.6243 21.5792 23.8612C21.7255 24.098 21.9347 24.2895 22.1835 24.4142L29.3295 27.9872C29.5377 28.0912 29.7673 28.1454 30 28.1454C30.2327 28.1454 30.4623 28.0912 30.6705 27.9872L37.8165 24.4142ZM21.6705 27.5132C21.4419 27.3989 21.1878 27.345 20.9325 27.3565C20.6772 27.368 20.429 27.4445 20.2116 27.5789C19.9942 27.7132 19.8147 27.9009 19.6901 28.1241C19.5656 28.3473 19.5001 28.5986 19.5 28.8542V37.5002C19.5001 37.7787 19.5778 38.0516 19.7243 38.2885C19.8708 38.5253 20.0804 38.7167 20.3295 38.8412L26.3295 41.8412C26.5581 41.9554 26.8122 42.0094 27.0675 41.9979C27.3228 41.9864 27.571 41.9098 27.7884 41.7755C28.0058 41.6411 28.1853 41.4535 28.3099 41.2303C28.4344 41.0071 28.4999 40.7558 28.5 40.5002V31.8542C28.4999 31.5757 28.4222 31.3027 28.2757 31.0659C28.1292 30.829 27.9196 30.6377 27.6705 30.5132L21.6705 27.5132Z" fill="white"/>
</g>
<defs>
<filter id="filter0_i_4013_1663" x="0" y="-4" width="62" height="64" filterUnits="userSpaceOnUse" color-interpolation-filters="sRGB">
<feFlood flood-opacity="0" result="BackgroundImageFix"/>
<feBlend mode="normal" in="SourceGraphic" in2="BackgroundImageFix" result="shape"/>
<feColorMatrix in="SourceAlpha" type="matrix" values="0 0 0 0 0 0 0 0 0 0 0 0 0 0 0 0 0 0 127 0" result="hardAlpha"/>
<feOffset dx="2" dy="-7"/>
<feGaussianBlur stdDeviation="2"/>
<feComposite in2="hardAlpha" operator="arithmetic" k2="-1" k3="1"/>
<feColorMatrix type="matrix" values="0 0 0 0 0 0 0 0 0 0 0 0 0 0 0 0 0 0 0.25 0"/>
<feBlend mode="normal" in2="shape" result="effect1_innerShadow_4013_1663"/>
</filter>
</defs>
</svg>
