<svg width="60" height="60" viewBox="0 0 60 60" fill="none" xmlns="http://www.w3.org/2000/svg">
<g filter="url(#filter0_i_4013_290)">
<circle cx="30" cy="30" r="30" fill="#5356FF"/>
<path d="M16 16H24.4V18.8H35.6V16H44V24.4H41.2V35.6H44V44H35.6V41.2H24.4V44H16V35.6H18.8V24.4H16V16ZM35.6 24.4V21.6H24.4V24.4H21.6V35.6H24.4V38.4H35.6V35.6H38.4V24.4M18.8 18.8V21.6H21.6V18.8M38.4 18.8V21.6H41.2V18.8M18.8 38.4V41.2H21.6V38.4M38.4 38.4V41.2H41.2V38.4H38.4Z" fill="white"/>
</g>
<defs>
<filter id="filter0_i_4013_290" x="0" y="-4" width="62" height="64" filterUnits="userSpaceOnUse" color-interpolation-filters="sRGB">
<feFlood flood-opacity="0" result="BackgroundImageFix"/>
<feBlend mode="normal" in="SourceGraphic" in2="BackgroundImageFix" result="shape"/>
<feColorMatrix in="SourceAlpha" type="matrix" values="0 0 0 0 0 0 0 0 0 0 0 0 0 0 0 0 0 0 127 0" result="hardAlpha"/>
<feOffset dx="2" dy="-7"/>
<feGaussianBlur stdDeviation="2"/>
<feComposite in2="hardAlpha" operator="arithmetic" k2="-1" k3="1"/>
<feColorMatrix type="matrix" values="0 0 0 0 0 0 0 0 0 0 0 0 0 0 0 0 0 0 0.25 0"/>
<feBlend mode="normal" in2="shape" result="effect1_innerShadow_4013_290"/>
</filter>
</defs>
</svg>
